<?xml version="1.0" standalone="no"?>
<!DOCTYPE svg PUBLIC "-//W3C//DTD SVG 20010904//EN"
 "http://www.w3.org/TR/2001/REC-SVG-20010904/DTD/svg10.dtd">
<svg version="1.0" xmlns="http://www.w3.org/2000/svg"
 width="250.000000pt" height="250.000000pt" viewBox="0 0 250.000000 250.000000"
 preserveAspectRatio="xMidYMid meet">
<metadata>
Created by potrace 1.14, written by Peter Selinger 2001-2017
</metadata>
<g transform="translate(0.000000,250.000000) scale(0.100000,-0.100000)"
fill="#000000" stroke="none">
<path d="M825 2389 c-29 -12 -87 -23 -139 -27 l-88 -7 -23 -61 c-13 -33 -25
-85 -28 -115 -3 -30 -11 -90 -18 -134 -14 -99 -18 -194 -8 -201 4 -2 7 -54 8
-115 0 -61 4 -116 9 -122 16 -22 32 -122 28 -182 -2 -39 -15 -87 -35 -135 -18
-41 -34 -83 -37 -94 -2 -10 -13 -46 -24 -79 -12 -33 -20 -60 -18 -61 2 -1 27
-16 56 -34 29 -18 59 -32 65 -32 16 -1 39 -21 53 -45 8 -15 26 -22 70 -27 32
-3 82 -11 109 -17 43 -9 230 -20 378 -22 45 0 47 -2 47 -29 0 -15 -6 -32 -12
-38 -12 -9 -69 -23 -108 -27 -9 0 -20 -4 -25 -7 -16 -10 -59 -12 -77 -3 -29
12 -46 -1 -70 -52 -18 -39 -22 -67 -23 -148 -1 -55 -6 -113 -13 -128 -14 -33
-16 -79 -3 -93 5 -5 11 -25 14 -44 3 -19 8 -42 11 -51 13 -30 70 -48 162 -53
22 -1 56 -12 75 -23 39 -22 86 -28 214 -27 103 2 161 20 253 82 31 21 81 52
110 67 59 32 134 118 177 203 14 28 30 54 35 57 4 3 12 20 15 38 4 17 11 37
16 43 5 6 11 33 14 60 3 27 9 58 12 69 4 11 7 58 8 105 1 71 -2 92 -22 129
-13 24 -23 50 -23 58 0 8 -18 45 -40 82 -22 38 -43 78 -45 90 -5 25 28 117 51
142 8 9 11 19 8 22 -4 4 -1 9 7 12 10 4 14 23 14 65 0 33 4 60 8 60 5 0 6 4 3
9 -3 4 -6 46 -7 92 -1 46 -4 88 -7 93 -3 5 -6 23 -7 40 -1 17 -18 68 -38 112
-20 45 -37 95 -37 112 0 17 -3 32 -7 34 -11 4 -63 75 -63 85 0 4 -13 21 -30
36 -16 16 -30 33 -30 38 0 15 -137 76 -187 84 -24 4 -60 15 -80 25 -21 10 -73
29 -117 44 -69 23 -94 26 -212 26 -100 0 -140 4 -157 14 -40 26 -116 28 -172
5z"/>
</g>
</svg>
